<?xml version="1.0" encoding="utf-8"?>
<svg version="1.1" xmlns:xlink="http://www.w3.org/1999/xlink" width="40px" height="40px" xmlns="http://www.w3.org/2000/svg">
  <defs>
    <filter x="120px" y="33px" width="40px" height="40px" filterUnits="userSpaceOnUse" id="filter1">
      <feOffset dx="1" dy="1" in="SourceAlpha" result="shadowOffsetInner" />
      <feGaussianBlur stdDeviation="2.5" in="shadowOffsetInner" result="shadowGaussian" />
      <feComposite in2="shadowGaussian" operator="atop" in="SourceAlpha" result="shadowComposite" />
      <feColorMatrix type="matrix" values="0 0 0 0 0  0 0 0 0 0  0 0 0 0 0  0 0 0 0.698039215686274 0  " in="shadowComposite" />
    </filter>
    <g id="widget2">
      <path d="M 139 37  C 147.4 37  154 43.6  154 52  C 154 60.4  147.4 67  139 67  C 130.6 67  124 60.4  124 52  C 124 43.6  130.6 37  139 37  Z " fill-rule="nonzero" fill="#009dd9" stroke="none" />
      <path d="M 139 37.5  C 147.12 37.5  153.5 43.88  153.5 52  C 153.5 60.12  147.12 66.5  139 66.5  C 130.88 66.5  124.5 60.12  124.5 52  C 124.5 43.88  130.88 37.5  139 37.5  Z " stroke-width="1" stroke="#ffffff" fill="none" />
    </g>
  </defs>
  <g transform="matrix(1 0 0 1 -120 -33 )">
    <use xlink:href="#widget2" filter="url(#filter1)" />
    <use xlink:href="#widget2" />
  </g>
</svg>