<?xml version="1.0" encoding="utf-8"?>
<svg version="1.1" xmlns:xlink="http://www.w3.org/1999/xlink" width="23px" height="24px" xmlns="http://www.w3.org/2000/svg">
  <g transform="matrix(1 0 0 1 -529 -2270 )">
    <path d="M 5.86748798076923 18.1041666666667  C 6.21304086538462 18.4513888888889  6.38581730769231 18.8703703703704  6.38581730769231 19.3611111111111  C 6.38581730769231 19.8518518518518  6.21304086538462 20.2708333333333  5.86748798076923 20.6180555555556  C 5.52193509615385 20.9652777777778  5.10496794871795 21.1388888888889  4.61658653846154 21.1388888888889  C 4.13741987179487 21.1388888888889  3.72275641025641 20.962962962963  3.37259615384615 20.6111111111111  C 3.0224358974359 20.2592592592593  2.84735576923077 19.8425925925926  2.84735576923077 19.3611111111111  C 2.84735576923077 18.8703703703704  3.02013221153846 18.4513888888889  3.36568509615385 18.1041666666667  C 3.71123798076923 17.7569444444444  4.12820512820513 17.5833333333333  4.61658653846154 17.5833333333333  C 5.10496794871795 17.5833333333333  5.52193509615385 17.7569444444444  5.86748798076923 18.1041666666667  Z M 12.7509014423077 20.9652777777778  C 13.0964543269231 21.3125  13.2692307692308 21.7314814814815  13.2692307692308 22.2222222222222  C 13.2692307692308 22.712962962963  13.0964543269231 23.1319444444444  12.7509014423077 23.4791666666667  C 12.4053485576923 23.8263888888889  11.9883814102564 24  11.5 24  C 11.0116185897436 24  10.5946514423077 23.8263888888889  10.2490985576923 23.4791666666667  C 9.90354567307692 23.1319444444444  9.73076923076923 22.712962962963  9.73076923076923 22.2222222222222  C 9.73076923076923 21.7314814814815  9.90354567307692 21.3125  10.2490985576923 20.9652777777778  C 10.5946514423077 20.6180555555556  11.0116185897436 20.4444444444444  11.5 20.4444444444444  C 11.9883814102564 20.4444444444444  12.4053485576923 20.6180555555556  12.7509014423077 20.9652777777778  Z M 3.02013221153846 11.1875  C 3.36568509615385 11.5347222222222  3.53846153846154 11.9537037037037  3.53846153846154 12.4444444444444  C 3.53846153846154 12.9351851851852  3.36568509615385 13.3541666666667  3.02013221153846 13.7013888888889  C 2.67457932692308 14.0486111111111  2.25761217948718 14.2222222222222  1.76923076923077 14.2222222222222  C 1.28084935897436 14.2222222222222  0.863882211538461 14.0486111111111  0.518329326923077 13.7013888888889  C 0.172776442307692 13.3541666666667  0 12.9351851851852  0 12.4444444444444  C 0 11.9537037037037  0.172776442307692 11.5347222222222  0.518329326923077 11.1875  C 0.863882211538461 10.8402777777778  1.28084935897436 10.6666666666667  1.76923076923077 10.6666666666667  C 2.25761217948718 10.6666666666667  2.67457932692308 10.8402777777778  3.02013221153846 11.1875  Z M 19.6343149038462 18.1041666666667  C 19.9798677884615 18.4513888888889  20.1526442307692 18.8703703703704  20.1526442307692 19.3611111111111  C 20.1526442307692 19.8425925925926  19.9775641025641 20.2592592592593  19.6274038461538 20.6111111111111  C 19.2772435897436 20.962962962963  18.8625801282051 21.1388888888889  18.3834134615385 21.1388888888889  C 17.8950320512821 21.1388888888889  17.4780649038462 20.9652777777778  17.1325120192308 20.6180555555556  C 16.7869591346154 20.2708333333333  16.6141826923077 19.8518518518518  16.6141826923077 19.3611111111111  C 16.6141826923077 18.8703703703704  16.7869591346154 18.4513888888889  17.1325120192308 18.1041666666667  C 17.4780649038462 17.7569444444444  17.8950320512821 17.5833333333333  18.3834134615385 17.5833333333333  C 18.8717948717949 17.5833333333333  19.2887620192308 17.7569444444444  19.6343149038462 18.1041666666667  Z M 6.17848557692308 3.95833333333333  C 6.61157852564103 4.39351851851852  6.828125 4.91666666666667  6.828125 5.52777777777778  C 6.828125 6.13888888888889  6.61157852564103 6.66203703703703  6.17848557692308 7.09722222222222  C 5.74539262820513 7.53240740740741  5.22475961538462 7.75  4.61658653846154 7.75  C 4.00841346153846 7.75  3.48778044871795 7.53240740740741  3.0546875 7.09722222222222  C 2.62159455128205 6.66203703703703  2.40504807692308 6.13888888888889  2.40504807692308 5.52777777777778  C 2.40504807692308 4.91666666666667  2.62159455128205 4.39351851851852  3.0546875 3.95833333333333  C 3.48778044871795 3.52314814814815  4.00841346153846 3.30555555555556  4.61658653846154 3.30555555555556  C 5.22475961538462 3.30555555555556  5.74539262820513 3.52314814814815  6.17848557692308 3.95833333333333  Z M 22.4816706730769 11.1875  C 22.8272235576923 11.5347222222222  23 11.9537037037037  23 12.4444444444444  C 23 12.9351851851852  22.8272235576923 13.3541666666667  22.4816706730769 13.7013888888889  C 22.1361177884615 14.0486111111111  21.7191506410256 14.2222222222222  21.2307692307692 14.2222222222222  C 20.7423878205128 14.2222222222222  20.3254206730769 14.0486111111111  19.9798677884615 13.7013888888889  C 19.6343149038462 13.3541666666667  19.4615384615385 12.9351851851852  19.4615384615385 12.4444444444444  C 19.4615384615385 11.9537037037037  19.6343149038462 11.5347222222222  19.9798677884615 11.1875  C 20.3254206730769 10.8402777777778  20.7423878205128 10.6666666666667  21.2307692307692 10.6666666666667  C 21.7191506410256 10.6666666666667  22.1361177884615 10.8402777777778  22.4816706730769 11.1875  Z M 13.3798076923077 0.777777777777779  C 13.8958333333333 1.29629629629629  14.1538461538462 1.92592592592592  14.1538461538462 2.66666666666667  C 14.1538461538462 3.40740740740741  13.8958333333333 4.03703703703703  13.3798076923077 4.55555555555555  C 12.8637820512821 5.07407407407407  12.2371794871795 5.33333333333333  11.5 5.33333333333333  C 10.7628205128205 5.33333333333333  10.136217948718 5.07407407407407  9.62019230769231 4.55555555555555  C 9.10416666666667 4.03703703703703  8.84615384615385 3.40740740740741  8.84615384615385 2.66666666666667  C 8.84615384615385 1.92592592592592  9.10416666666667 1.29629629629629  9.62019230769231 0.777777777777779  C 10.136217948718 0.25925925925926  10.7628205128205 0  11.5 0  C 12.2371794871795 0  12.8637820512821 0.25925925925926  13.3798076923077 0.777777777777779  Z M 20.5673076923077 3.33333333333333  C 21.1754807692308 3.94444444444444  21.4795673076923 4.67592592592592  21.4795673076923 5.52777777777778  C 21.4795673076923 6.38888888888889  21.1754807692308 7.12268518518518  20.5673076923077 7.72916666666667  C 19.9591346153846 8.33564814814815  19.2311698717949 8.63888888888889  18.3834134615385 8.63888888888889  C 17.5264423076923 8.63888888888889  16.7961738782051 8.33564814814815  16.1926081730769 7.72916666666667  C 15.5890424679487 7.12268518518518  15.2872596153846 6.38888888888889  15.2872596153846 5.52777777777778  C 15.2872596153846 4.67592592592592  15.5890424679487 3.94444444444444  16.1926081730769 3.33333333333333  C 16.7961738782051 2.72222222222222  17.5264423076923 2.41666666666667  18.3834134615385 2.41666666666667  C 19.2311698717949 2.41666666666667  19.9591346153846 2.72222222222222  20.5673076923077 3.33333333333333  Z " fill-rule="nonzero" fill="#ffffff" stroke="none" transform="matrix(1 0 0 1 529 2270 )" />
  </g>
</svg>